<svg width="48" height="48" viewBox="0 0 48 48" fill="none" xmlns="http://www.w3.org/2000/svg">
<path fill-rule="evenodd" clip-rule="evenodd" d="M32.202 12.1023C31.1127 15.7514 34.5004 24 40.6193 24C47.758 24 49.6255 13.3256 46.6235 9.92906C45.5383 8.70131 42.2839 7.84634 39.1183 8.02316C36.0285 8.19574 33.0233 9.35121 32.202 12.1023Z" fill="#C6E9F2"></path>
<path fill-rule="evenodd" clip-rule="evenodd" d="M28.798 12.1023C29.8873 15.7514 26.4996 24 20.3807 24C13.242 24 11.3745 13.3256 14.3765 9.92906C15.4617 8.70131 18.7161 7.84634 21.8817 8.02316C24.9715 8.19574 27.9767 9.35121 28.798 12.1023Z" fill="#C6E9F2"></path>
<path fill-rule="evenodd" clip-rule="evenodd" d="M32.6024 17H11.3976V17.0128C8.35554 17.0204 5.41779 17.8865 4.37408 19.0823C3.57736 19.995 3.10435 21.3977 2.96175 22.9876C2.9465 22.9867 2.93113 22.9863 2.91566 22.9863H0.795181C0.356014 22.9863 0 23.3358 0 23.7671C0 24.1983 0.356014 24.5479 0.795181 24.5479H2.91566L2.92602 24.5478C3.01646 26.7881 3.69948 29.1908 4.99097 31.0359L1.29314 34.6669C0.982607 34.9718 0.982607 35.4662 1.29314 35.7711C1.60368 36.0761 2.10716 36.0761 2.4177 35.7711L6.01077 32.243C7.22307 33.4247 8.7956 34.1781 10.7355 34.1781C15.8 34.1781 19.0986 28.7776 19.7493 24.5479H24.1187C24.7695 28.7776 28.068 34.1781 33.1325 34.1781C35.1077 34.1781 36.702 33.3971 37.923 32.1781L41.5823 35.7713C41.8928 36.0762 42.3963 36.0762 42.7069 35.7713C43.0174 35.4664 43.0174 34.972 42.7069 34.6671L38.9304 30.9588C40.1897 29.1208 40.8553 26.7482 40.9425 24.5355C40.9885 24.5436 41.0359 24.5479 41.0843 24.5479H43.2048C43.644 24.5479 44 24.1983 44 23.7671C44 23.3358 43.644 22.9863 43.2048 22.9863H41.0843C41.0237 22.9863 40.9647 22.9929 40.9079 23.0056C40.7673 21.4083 40.2937 19.9985 39.494 19.0823C38.4654 17.9038 35.5971 17.0455 32.6024 17.0136V17ZM26.3564 18.5616H17.5116C18.5217 19.2452 19.2899 20.1799 19.6537 21.4138C19.7901 21.8766 19.8602 22.4083 19.8672 22.9863H24.0009C24.0078 22.4083 24.078 21.8766 24.2144 21.4138C24.5782 20.1799 25.3464 19.2452 26.3564 18.5616ZM33.1325 32.6164C30.7038 32.6164 28.6164 30.9535 27.1923 28.4925C26.4955 27.2885 26.0125 25.9745 25.77 24.7595C25.5227 23.5207 25.5485 22.5045 25.742 21.848C26.3145 19.9062 28.5257 18.7724 31.6336 18.5966C33.1447 18.5111 34.677 18.6769 35.9379 19.0045C37.2723 19.3512 38.0326 19.8077 38.2865 20.0985C38.7844 20.669 39.1936 21.7053 39.3214 23.1166C39.4462 24.4955 39.2847 26.0654 38.8226 27.5363C37.877 30.5465 35.9068 32.6164 33.1325 32.6164ZM10.7355 32.6164C13.1643 32.6164 15.2516 30.9535 16.6758 28.4925C17.3725 27.2885 17.8556 25.9745 18.0981 24.7595C18.3454 23.5207 18.3196 22.5045 18.126 21.848C17.5464 19.8821 15.2836 18.7445 12.1265 18.5909C10.6313 18.5182 9.12359 18.6891 7.88547 19.0162C6.57548 19.3623 5.83142 19.8123 5.58159 20.0985C5.08367 20.669 4.67449 21.7053 4.5467 23.1166C4.42185 24.4955 4.58335 26.0654 5.04543 27.5363C5.99109 30.5465 7.96124 32.6164 10.7355 32.6164Z" fill="#0C0D0D"></path>
</svg>