<svg xmlns="http://www.w3.org/2000/svg" width="64" height="64" viewBox="0 0 64 64" fill="none">
  <path d="M62.6029 24.7709L59.4075 24.7727C56.5364 18.2552 50.0813 14.0465 42.9623 14.0506C33.0635 14.0562 25.0149 22.114 25.0205 32.0126C25.0261 41.9112 33.084 49.9597 42.9826 49.9541C50.1016 49.9501 56.552 45.7341 59.4158 39.2132L62.611 39.2114C62.8834 39.2112 63.1041 38.9904 63.1039 38.7179L63.0963 25.2637C63.0961 24.9914 62.8753 24.7706 62.6029 24.7709Z" fill="#E0F3FD"></path>
  <path d="M56.0897 28.4012C54.5097 22.626 49.2241 18.3824 42.9478 18.3859C36.7892 18.3894 31.5886 22.4815 29.9095 28.0936C28.4586 28.8001 27.459 30.289 27.46 32.0111C27.461 33.7332 28.4623 35.2211 29.914 35.9257C31.5996 41.5357 36.8047 45.6222 42.9633 45.6187C49.2396 45.6151 54.5205 41.3657 56.0937 35.5886L63.102 35.5846L63.0978 28.3974L56.0897 28.4012Z" fill="white"></path>
  <path d="M25.0573 30.4396C24.652 30.4396 8.55538 30.4396 7.96088 30.4396H2.45426C1.59351 30.4396 0.895508 31.1393 0.895508 32.0023C0.895508 32.8653 1.59338 33.5649 2.45426 33.5649H7.96101C9.04013 33.5649 24.6221 33.5649 25.0574 33.5649C24.9675 32.508 24.9674 31.4974 25.0573 30.4396Z" fill="#E0F3FD"></path>
  <path d="M38.1422 32.0023C38.1422 28.7207 36.7499 26.2461 34.9035 26.2461C33.0573 26.2461 31.665 28.7207 31.665 32.0023C31.665 35.2838 33.0573 37.7585 34.9035 37.7585C36.7499 37.7583 38.1422 35.2838 38.1422 32.0023ZM33.3989 32.0023C33.3989 29.4026 34.3929 27.9842 34.9035 27.9842C35.4143 27.9842 36.4083 29.4026 36.4083 32.0023C36.4083 34.6021 35.4142 36.0203 34.9035 36.0203C34.393 36.0202 33.3989 34.602 33.3989 32.0023Z" fill="#1E306E"></path>
  <path d="M63.133 23.9015H60.004C58.3831 20.4985 55.7045 17.5853 52.4536 15.6919C52.0406 15.4515 51.5086 15.5927 51.2685 16.007C51.0285 16.4213 51.1694 16.9543 51.5826 17.195C54.6961 19.0082 57.2075 21.8229 58.6544 25.1204C58.7927 25.4358 59.1041 25.6395 59.4479 25.6395H62.2661V27.5339H56.7774C55.842 24.6319 54.0444 22.1388 51.5741 20.3187C43.7036 14.5194 32.3526 18.0203 29.2546 27.4804C25.7941 29.487 25.7892 34.5143 29.2546 36.5239C29.9342 38.5997 31.0971 40.5272 32.6196 42.1009C33.1629 42.6625 34.0971 42.2727 34.1087 41.5093C34.1123 41.2773 34.0255 41.0577 33.8643 40.891C32.4454 39.4244 31.3879 37.6207 30.8059 35.6748C30.7365 35.4429 30.5721 35.249 30.3546 35.1428C29.1446 34.5532 28.393 33.3498 28.393 32.0023C28.393 30.6548 29.1446 29.4514 30.3546 28.8617C30.572 28.7557 30.7365 28.5619 30.8059 28.3297C32.4076 22.9739 37.425 19.2334 43.0074 19.2334C47.367 19.2334 51.37 21.4293 53.7309 25.1114L52.8553 26.5994H51.9009C51.4229 26.5994 51.0339 26.9893 51.0339 27.4684C51.0339 27.9475 51.4227 28.3374 51.9009 28.3374C54.0843 28.3374 53.7122 28.5635 54.6884 26.905C54.9316 27.4652 55.1355 28.045 55.2951 28.6318C55.3979 29.0087 55.7417 29.2718 56.1314 29.2718H62.2663V31.1232H54.225L51.126 30.0135L50.2429 26.1043C50.1799 25.8255 49.9843 25.5957 49.7195 25.4893C48.1569 24.8627 47.9943 24.7224 47.5737 24.903C46.8666 25.2069 46.8781 26.2219 47.5931 26.5088L48.6525 26.9335L49.3844 30.1733L47.1283 31.2013C46.6931 31.3995 46.5 31.9158 46.6979 32.3522C46.8956 32.7883 47.4105 32.9819 47.8459 32.7835L50.425 31.6084L51.6268 32.0387L50.3639 34.2972C48.3564 34.7347 48.1785 34.6972 47.9274 35.0887C47.5549 35.6695 47.9791 36.4278 48.6559 36.4278C48.7846 36.4278 48.6425 36.451 51.1134 35.9127C51.6191 35.8024 51.5761 35.6839 53.2827 32.6314C54.2024 32.9605 52.7216 32.8613 62.2664 32.8613V34.7325H56.1315C55.7417 34.7325 55.3979 34.9957 55.2952 35.3725C54.9395 36.6798 54.3797 37.9153 53.6316 39.0457L50.259 39.5884L48.0629 37.633C47.4893 37.1225 46.576 37.5599 46.6219 38.3342C46.6485 38.785 46.8778 38.9025 47.7779 39.7038L46.3444 40.7718C45.6746 41.2709 46.0321 42.3385 46.862 42.3385C47.0492 42.3385 47.2278 42.2792 47.3785 42.167L49.1016 40.8832C49.844 41.5573 49.6704 41.4575 51.9639 41.0754C47.64 45.3505 40.821 46.0409 35.7326 42.4839C35.5426 42.351 35.3121 42.3004 35.0845 42.341C34.3322 42.4755 34.1041 43.4649 34.741 43.9097C38.5426 46.5675 43.2503 47.2304 47.6564 45.7283C52.0429 44.233 55.3627 40.8615 56.7777 36.4704H62.2665V38.3645H59.4482C59.1045 38.3645 58.7931 38.5683 58.6548 38.8837C55.9281 45.0978 49.7927 49.1129 43.024 49.1129C33.8021 49.1129 25.9697 41.6468 25.9697 32.0018C25.9697 31.518 25.9913 31.0189 26.0338 30.5184C26.0379 30.47 26.0369 30.422 26.0336 30.3743C27.109 19.1107 38.7195 11.9074 49.2735 16.074C49.7185 16.2495 50.2226 16.0294 50.3978 15.5838C50.573 15.1374 50.3552 14.633 49.9087 14.4567C39.5251 10.3579 27.9237 16.2212 24.9234 26.895L22.8259 19.0449C22.6922 18.5447 22.1784 18.248 21.678 18.381C21.1777 18.5147 20.8806 19.0287 21.0142 19.529L23.4163 28.5188L15.579 24.1935C15.1256 23.9434 14.5553 24.1079 14.3051 24.5613C14.055 25.0147 14.2196 25.585 14.6729 25.8352L21.3161 29.5014H2.49625C1.11987 29.5017 0 30.6233 0 32.0019C0 33.3805 1.11987 34.502 2.49625 34.502H21.364L14.6728 38.1949C14.2195 38.4452 14.0548 39.0153 14.305 39.4688C14.476 39.7785 14.7963 39.9534 15.1266 39.9534C15.2799 39.9534 15.4351 39.9158 15.5787 39.8365L23.4161 35.5112L21.014 44.5015C20.8804 45.0017 21.1775 45.5157 21.6777 45.6494C21.7589 45.671 21.8403 45.6814 21.9204 45.6814C22.3345 45.6814 22.7135 45.4048 22.8256 44.9857L24.9266 37.1222C28.3385 49.2259 42.4655 54.6859 53.1043 47.9124C56.0971 46.0067 58.4816 43.3075 60.0042 40.1028H63.133C63.611 40.1028 64 39.7129 64 39.2337V24.7707C64 24.2915 63.6111 23.9015 63.133 23.9015ZM1.87513 32.0023C1.87513 31.6577 2.15375 31.3773 2.49625 31.3773H24.1047C24.091 31.7907 24.0905 32.1963 24.1047 32.6274H2.49625C2.15375 32.6273 1.87513 32.3468 1.87513 32.0023Z" fill="#1E306E"></path>
  <path d="M20.0962 25.8364C20.2816 26.0592 20.5484 26.1742 20.8172 26.1742C21.6081 26.1742 22.0453 25.2469 21.5372 24.6368L18.4327 20.9073C18.1014 20.5092 17.5101 20.4554 17.1122 20.7864C16.7142 21.1177 16.6602 21.709 16.9914 22.1069L20.0962 25.8364Z" fill="#1E306E"></path>
  <path d="M21.4164 38.0737C21.0186 37.7428 20.4272 37.7964 20.0959 38.1945L16.9914 41.924C16.6602 42.3219 16.7142 42.9131 17.1122 43.2445C17.2874 43.3903 17.5001 43.4614 17.7114 43.4614C17.9802 43.4614 18.2471 43.3464 18.4324 43.1236L21.5369 39.3942C21.8686 38.9963 21.8146 38.405 21.4164 38.0737Z" fill="#1E306E"></path>
</svg>