<svg width="48" height="48" viewBox="0 0 48 48" fill="none" xmlns="http://www.w3.org/2000/svg">
<path fill-rule="evenodd" clip-rule="evenodd" d="M10.3913 20C10.1752 20 10 20.1741 10 20.3889V26.8673C10 30.0498 11.9491 32.9746 15.0919 33.585C16.3345 33.8263 17.6855 34 19 34C20.3145 34 21.6655 33.8263 22.9081 33.585C26.0509 32.9746 28 30.0498 28 26.8673V25.4444C28 22.4376 25.5473 20 22.5217 20H10.3913Z" fill="#C6E9F2"></path>
<path fill-rule="evenodd" clip-rule="evenodd" d="M47.6087 20C47.8248 20 48 20.1741 48 20.3889V26.8673C48 30.0498 46.0509 32.9746 42.9081 33.585C41.6655 33.8263 40.3145 34 39 34C37.6855 34 36.3345 33.8263 35.0919 33.585C31.9491 32.9746 30 30.0498 30 26.8673V25.4444C30 22.4376 32.4527 20 35.4783 20H47.6087Z" fill="#C6E9F2"></path>
<path fill-rule="evenodd" clip-rule="evenodd" d="M15.75 13.7373C15.75 12.2255 14.5341 11 13.0341 11C12.1398 11 11.3028 11.4438 10.7961 12.1865L0.381976 27.4536C0.330762 27.5287 7.70153e-06 27.8819 3.01129e-05 28.3858C0.000164581 31.4094 7.70153e-06 36.8589 7.70153e-06 36.8589C7.70153e-06 39.8196 2.12637 42.3569 5.04706 42.6742C6.70775 42.8545 8.50906 43 10 43C11.3279 43 12.9019 42.7693 14.4036 42.4639C17.7897 41.7753 20 38.6316 20 35.1499V33.9891C20.2304 33.827 20.5591 33.6772 21 33.6772C21.4409 33.6772 21.7696 33.827 22 33.9891V35.1499C22 38.6316 24.2103 41.7753 27.5964 42.4639C29.0981 42.7693 30.6721 43 32 43C33.491 43 35.2923 42.8545 36.9529 42.6742C39.8736 42.3569 42 39.8196 42 36.8589C42 36.8589 42 30.4016 42 28.3858C42 27.8819 41.6692 27.5287 41.618 27.4536L31.2039 12.1865C30.6972 11.4438 29.8602 11 28.9659 11C27.4659 11 26.25 12.2255 26.25 13.7373V16.2913C26.25 16.7088 26.5858 17.0472 27 17.0472C27.4142 17.0472 27.75 16.7088 27.75 16.2913V13.7373C27.75 13.0605 28.2944 12.5118 28.9659 12.5118C29.3663 12.5118 29.741 12.7105 29.9678 13.043L39.7461 27.378H27C24.2706 27.378 22.0521 29.5821 22.0009 32.3206C21.7075 32.2258 21.3738 32.1654 21 32.1654C20.6263 32.1654 20.2925 32.2258 19.9991 32.3206C19.9479 29.5821 17.7294 27.378 15 27.378H2.2539L12.0322 13.043C12.259 12.7105 12.6337 12.5118 13.0341 12.5118C13.7056 12.5118 14.25 13.0605 14.25 13.7373V16.2913C14.25 16.7088 14.5858 17.0472 15 17.0472C15.4142 17.0472 15.75 16.7088 15.75 16.2913V13.7373ZM1.50001 36.8589V28.8898H15C16.933 28.8898 18.5 30.4691 18.5 32.4173V35.1499C18.5 38.0209 16.6923 40.4562 14.1069 40.982C12.6424 41.2798 11.1812 41.4882 10 41.4882C8.58923 41.4882 6.85027 41.3495 5.20779 41.1711C3.09716 40.9418 1.50001 39.0973 1.50001 36.8589ZM27 28.8898C25.067 28.8898 23.5 30.4691 23.5 32.4173V35.1499C23.5 38.0209 25.3077 40.4562 27.8931 40.982C29.3576 41.2798 30.8188 41.4882 32 41.4882C33.4108 41.4882 35.1497 41.3495 36.7922 41.1711C38.9028 40.9418 40.5 39.0973 40.5 36.8589V28.8898H27Z" fill="#0C0D0D"></path>
</svg>