<svg xmlns="http://www.w3.org/2000/svg" width="48" height="48" viewBox="0 0 48 48" fill="none"><path opacity="0.4" fill-rule="evenodd" clip-rule="evenodd" d="M29.7389 4C29.1742 4 28.6446 4.27591 28.318 4.74022L21.321 14.6865C21.1122 14.9834 21 15.3384 21 15.7024L21 34.7317C21 37.6413 23.3397 40 26.2258 40L42.7742 40C45.6603 40 48 37.6413 48 34.7317L48 15.7024C48 15.3384 47.8878 14.9834 47.6789 14.6865L40.682 4.74022C40.3554 4.27591 39.8258 4 39.2611 4L29.7389 4Z" fill="#C6E9F2"></path><path d="M35.4297 0.0236805C35.9601 -0.0671137 36.5012 0.106378 36.8816 0.489138L43.2965 6.94414C43.6769 7.3269 43.8493 7.87144 43.7591 8.40508L41.8262 19.8362C41.7685 20.1775 41.6069 20.4922 41.3637 20.737L28.6475 33.5326C26.7031 35.4891 23.5508 35.4891 21.6065 33.5326L10.4582 22.3147C8.51392 20.3583 8.51392 17.1862 10.4582 15.2298L23.1744 2.43407C23.4177 2.18932 23.7305 2.02667 24.0696 1.96861L35.4297 0.0236805Z" fill="#C6E9F2"></path><path fill-rule="evenodd" clip-rule="evenodd" d="M28.7512 7.02479C29.3081 6.92974 29.8763 7.11136 30.2757 7.51203L37.0113 14.2692C37.4107 14.6699 37.5918 15.2399 37.497 15.7985L37.1481 17.8558L40.6795 22.8511C40.888 23.146 41 23.4987 41 23.8603V42.766C41 45.6566 38.6641 48 35.7826 48H19.2609C16.3794 48 14.0435 45.6566 14.0435 42.766V41.9083L2.53115 30.3592C0.489617 28.3112 0.489617 24.9907 2.53115 22.9426L15.8832 9.548C16.1386 9.29179 16.467 9.12153 16.8231 9.06075L28.7512 7.02479ZM29.0435 8.74814L35.7792 15.5053L33.7497 27.4715L20.3977 40.8661C19.0366 42.2315 16.83 42.2315 15.469 40.8661L3.76332 29.1231C2.4023 27.7578 2.4023 25.5441 3.76332 24.1787L17.1153 10.7841L29.0435 8.74814ZM14.2368 42.1023C14.7041 42.5711 15.2378 42.9325 15.8076 43.1867C16.0147 44.9154 17.4818 46.2553 19.2609 46.2553H35.7826C37.7036 46.2553 39.2609 44.6931 39.2609 42.766V23.8603L36.7356 20.2882L35.4675 27.7647C35.407 28.1219 35.2372 28.4514 34.9818 28.7076L21.6298 42.1022C19.5883 44.1503 16.2783 44.1503 14.2368 42.1023Z" fill="#0C0D0D"></path><path d="M38.1252 7.57915C38.48 7.2179 38.48 6.63219 38.1252 6.27094C37.7704 5.90969 37.1952 5.90969 36.8404 6.27094L29.3268 13.921L27.7625 12.3571C27.4045 11.9992 26.8292 12.0045 26.4777 12.3691C26.1261 12.7336 26.1314 13.3193 26.4894 13.6772L30.7983 17.985C31.1563 18.3429 31.7315 18.3376 32.0831 17.9731C32.4346 17.6085 32.4294 17.0228 32.0713 16.6649L30.6234 15.2173L38.1252 7.57915Z" fill="#0C0D0D"></path><path fill-rule="evenodd" clip-rule="evenodd" d="M22.5793 15.2324C23.0349 15.3852 23.2811 15.8807 23.1292 16.3392L17.0423 34.7142C16.8904 35.1726 16.398 35.4204 15.9424 35.2676C15.4868 35.1148 15.2405 34.6192 15.3924 34.1608L21.4794 15.7858C21.6312 15.3273 22.1237 15.0796 22.5793 15.2324Z" fill="#0C0D0D"></path><path fill-rule="evenodd" clip-rule="evenodd" d="M26.2174 27C27.1779 27 27.9565 26.2165 27.9565 25.25C27.9565 24.2835 27.1779 23.5 26.2174 23.5C25.2569 23.5 24.4783 24.2835 24.4783 25.25C24.4783 26.2165 25.2569 27 26.2174 27ZM26.2174 28.75C28.1384 28.75 29.6957 27.183 29.6957 25.25C29.6957 23.317 28.1384 21.75 26.2174 21.75C24.2964 21.75 22.7391 23.317 22.7391 25.25C22.7391 27.183 24.2964 28.75 26.2174 28.75Z" fill="#0C0D0D"></path><path fill-rule="evenodd" clip-rule="evenodd" d="M12.3043 27C13.2648 27 14.0434 26.2165 14.0434 25.25C14.0434 24.2835 13.2648 23.5 12.3043 23.5C11.3438 23.5 10.5652 24.2835 10.5652 25.25C10.5652 26.2165 11.3438 27 12.3043 27ZM12.3043 28.75C14.2253 28.75 15.7826 27.183 15.7826 25.25C15.7826 23.317 14.2253 21.75 12.3043 21.75C10.3833 21.75 8.82605 23.317 8.82605 25.25C8.82605 27.183 10.3833 28.75 12.3043 28.75Z" fill="#0C0D0D"></path></svg>